<mxfile host="app.diagrams.net" agent="Mozilla/5.0 (Windows NT 10.0; Win64; x64; rv:142.0) Gecko/20100101 Firefox/142.0" version="28.2.3">
  <diagram id="C5RBs43oDa-KdzZeNtuy" name="Page-1">
    <mxGraphModel dx="570" dy="300" grid="1" gridSize="10" guides="1" tooltips="1" connect="1" arrows="1" fold="1" page="1" pageScale="1" pageWidth="827" pageHeight="1169" math="0" shadow="0">
      <root>
        <mxCell id="WIyWlLk6GJQsqaUBKTNV-0" />
        <mxCell id="WIyWlLk6GJQsqaUBKTNV-1" parent="WIyWlLk6GJQsqaUBKTNV-0" />
        <mxCell id="WIyWlLk6GJQsqaUBKTNV-3" value="UsuÃ¡rio" style="rounded=1;whiteSpace=wrap;html=1;fontSize=12;glass=0;strokeWidth=1;shadow=0;" parent="WIyWlLk6GJQsqaUBKTNV-1" vertex="1">
          <mxGeometry x="354" y="210" width="120" height="60" as="geometry" />
        </mxCell>
        <mxCell id="x7gLVJV_eMdsytJDkSwZ-5" value="" style="group" vertex="1" connectable="0" parent="WIyWlLk6GJQsqaUBKTNV-1">
          <mxGeometry x="363" y="130" width="60" height="28.5" as="geometry" />
        </mxCell>
        <mxCell id="x7gLVJV_eMdsytJDkSwZ-1" value="" style="endArrow=none;html=1;rounded=0;" edge="1" parent="x7gLVJV_eMdsytJDkSwZ-5">
          <mxGeometry width="50" height="50" relative="1" as="geometry">
            <mxPoint y="13.5" as="sourcePoint" />
            <mxPoint x="20" y="13.5" as="targetPoint" />
          </mxGeometry>
        </mxCell>
        <mxCell id="x7gLVJV_eMdsytJDkSwZ-2" value="" style="ellipse;whiteSpace=wrap;html=1;strokeWidth=1;fillStyle=auto;" vertex="1" parent="x7gLVJV_eMdsytJDkSwZ-5">
          <mxGeometry x="15" y="8.5" width="11" height="10" as="geometry" />
        </mxCell>
        <mxCell id="x7gLVJV_eMdsytJDkSwZ-4" value="Nome" style="text;html=1;align=center;verticalAlign=middle;whiteSpace=wrap;rounded=0;fontSize=9;" vertex="1" parent="x7gLVJV_eMdsytJDkSwZ-5">
          <mxGeometry x="20" width="40" height="25" as="geometry" />
        </mxCell>
        <mxCell id="x7gLVJV_eMdsytJDkSwZ-17" value="" style="ellipse;whiteSpace=wrap;html=1;strokeWidth=1;fillStyle=auto;" vertex="1" parent="x7gLVJV_eMdsytJDkSwZ-5">
          <mxGeometry x="22.5" y="23.5" width="11" height="10" as="geometry" />
        </mxCell>
        <mxCell id="x7gLVJV_eMdsytJDkSwZ-0" value="" style="endArrow=none;html=1;rounded=0;" edge="1" parent="WIyWlLk6GJQsqaUBKTNV-1">
          <mxGeometry width="50" height="50" relative="1" as="geometry">
            <mxPoint x="363" y="210" as="sourcePoint" />
            <mxPoint x="363" y="144" as="targetPoint" />
          </mxGeometry>
        </mxCell>
        <mxCell id="x7gLVJV_eMdsytJDkSwZ-7" value="" style="group" vertex="1" connectable="0" parent="WIyWlLk6GJQsqaUBKTNV-1">
          <mxGeometry x="400" y="166.5" width="60" height="43.5" as="geometry" />
        </mxCell>
        <mxCell id="x7gLVJV_eMdsytJDkSwZ-8" value="" style="endArrow=none;html=1;rounded=0;" edge="1" parent="x7gLVJV_eMdsytJDkSwZ-7">
          <mxGeometry width="50" height="50" relative="1" as="geometry">
            <mxPoint x="-27" y="43" as="sourcePoint" />
            <mxPoint x="-27" y="-9" as="targetPoint" />
          </mxGeometry>
        </mxCell>
        <mxCell id="x7gLVJV_eMdsytJDkSwZ-18" value="Email" style="text;html=1;align=center;verticalAlign=middle;whiteSpace=wrap;rounded=0;fontSize=9;" vertex="1" parent="x7gLVJV_eMdsytJDkSwZ-7">
          <mxGeometry x="-10" y="-21.5" width="40" height="25" as="geometry" />
        </mxCell>
        <mxCell id="x7gLVJV_eMdsytJDkSwZ-27" value="" style="ellipse;whiteSpace=wrap;html=1;strokeWidth=1;fillStyle=auto;" vertex="1" parent="x7gLVJV_eMdsytJDkSwZ-7">
          <mxGeometry x="-7" y="3" width="11" height="10" as="geometry" />
        </mxCell>
        <mxCell id="x7gLVJV_eMdsytJDkSwZ-28" value="Senha" style="text;html=1;align=center;verticalAlign=middle;whiteSpace=wrap;rounded=0;fontSize=9;" vertex="1" parent="x7gLVJV_eMdsytJDkSwZ-7">
          <mxGeometry x="-1" y="-5.5" width="40" height="25" as="geometry" />
        </mxCell>
        <mxCell id="x7gLVJV_eMdsytJDkSwZ-16" value="" style="endArrow=none;html=1;rounded=0;entryX=0;entryY=0.5;entryDx=0;entryDy=0;" edge="1" parent="WIyWlLk6GJQsqaUBKTNV-1">
          <mxGeometry width="50" height="50" relative="1" as="geometry">
            <mxPoint x="373" y="158" as="sourcePoint" />
            <mxPoint x="385.99999999999767" y="158" as="targetPoint" />
          </mxGeometry>
        </mxCell>
        <mxCell id="x7gLVJV_eMdsytJDkSwZ-24" value="" style="endArrow=none;html=1;rounded=0;" edge="1" parent="WIyWlLk6GJQsqaUBKTNV-1">
          <mxGeometry width="50" height="50" relative="1" as="geometry">
            <mxPoint x="380" y="210" as="sourcePoint" />
            <mxPoint x="380" y="175" as="targetPoint" />
          </mxGeometry>
        </mxCell>
        <mxCell id="x7gLVJV_eMdsytJDkSwZ-26" value="" style="endArrow=none;html=1;rounded=0;" edge="1" parent="WIyWlLk6GJQsqaUBKTNV-1">
          <mxGeometry width="50" height="50" relative="1" as="geometry">
            <mxPoint x="379.5" y="175" as="sourcePoint" />
            <mxPoint x="393" y="175" as="targetPoint" />
          </mxGeometry>
        </mxCell>
      </root>
    </mxGraphModel>
  </diagram>
</mxfile>
